<!-- Generator: Adobe Illustrator 17.1.0, SVG Export Plug-In  -->
<svg version="1.1"
	 xmlns="http://www.w3.org/2000/svg" xmlns:xlink="http://www.w3.org/1999/xlink" xmlns:a="http://ns.adobe.com/AdobeSVGViewerExtensions/3.0/"
	 x="0px" y="0px" width="702.2px" height="180.2px" viewBox="0 0 702.2 180.2" enable-background="new 0 0 702.2 180.2"
	 xml:space="preserve">
<defs>
</defs>
<circle fill="#94161D" cx="606.5" cy="17.3" r="17.3"/>
<g>
	<path d="M397.1,51v-7.1h71.2V51h-30.8v91.6h-9.6V51H397.1z"/>
	<path d="M493.3,43.9h12.6l39.1,98.7h-10.4l-17.2-44.5h-39.8l-19.8,44.5h-10.7L493.3,43.9z M515,91l-16-39.9h-0.3L480.4,91H515z"/>
	<path d="M536.4,43.9h34.2c20.1,0,27.5,12.4,27.5,22.3c0,18.3-10.2,28.4-32,28.9l34,47.5h-12l-36-53.6c3.3,0.4,6.7,1,10.1,1
		c21.9,0,26.2-13.8,26.2-22.3c0-13-10.5-16.7-19.4-16.7H546v91.6h-9.6V43.9z"/>
	<path d="M601.9,43.9h9.6v98.7h-9.6V43.9z"/>
	<path d="M650.5,43.9h12.6l39.1,98.7h-10.4l-17.2-44.5h-39.8L615,142.6h-10.7L650.5,43.9z M672.2,91l-16-39.9H656L637.6,91H672.2z"
		/>
</g>
<g>
	<path d="M0.3,43.9h9.6v98.7H0.3V43.9z"/>
	<path d="M106.8,43.9H121v98.7h-8.9V53.1h-0.3l-36.2,89.5H65.2L29,53.1h-0.3v89.5h-8.9V43.9H34l36.4,88.5L106.8,43.9z"/>
	<path d="M125.3,88.8c4,0.6,8,1,12.4,1c17.9,0,26.2-8.7,26.2-22.8c0-14.1-14.2-16-17.2-16h-25.3v91.6h-9.6V43.9h35.5
		c17.2,0,26.2,9.3,26.2,22.8c0,21.6-15.8,30.2-33.9,30.2c-4,0-10.7-0.6-14.4-1.3L125.3,88.8z"/>
	<path d="M188.5,106.9c0,17.6,9.8,28.4,31.5,28.4c21.7,0,31.5-10.8,31.5-28.4V42.1h9.6v68.2c0,7.1-2.7,32.1-41.1,32.1
		c-38.5,0-41.1-25-41.1-32.1V42.1h9.6V106.9z"/>
</g>
<g>
	<path fill="#9A999E" d="M13.4,157.5H1.6v8.6h11.9v1.5H1.6v10.9h11.9v1.4H0v-23.8h13.4V157.5z"/>
	<path fill="#9A999E" d="M36,159.7c-0.5-0.7-1.2-1.2-1.9-1.6c-0.9-0.5-2.1-0.7-3.6-0.7c-1.5,0-2.8,0.4-3.8,1.1
		c-1.1,0.8-1.6,1.8-1.6,3.1c0,1.2,0.6,2.1,1.7,3c0.6,0.4,1.9,1,3.9,1.8c2.4,0.9,4.2,1.9,5.3,2.8c1.5,1.3,2.3,2.8,2.3,4.7
		c0,3-1.5,5-4.5,6c-1,0.3-2.2,0.5-3.6,0.5c-4.3,0-7-1.7-8.3-5.2l1.6-0.5c0.9,2.8,3.1,4.3,6.7,4.3c2,0,3.6-0.4,4.8-1.3
		c1.2-0.9,1.7-2.1,1.7-3.8c0-1.6-0.7-2.9-2.1-3.9c-0.8-0.6-2.3-1.3-4.6-2.2c-2.2-0.8-3.7-1.6-4.6-2.2c-1.4-1-2-2.3-2-4
		c0-1.6,0.7-3,2.1-4c1.4-1,3.1-1.5,5-1.5c3.3,0,5.6,1,7,3.1L36,159.7z"/>
	<path fill="#9A999E" d="M60.2,156.1v1.4h-6.2v22.4h-1.6v-22.4h-6.2v-1.4H60.2z"/>
	<path fill="#9A999E" d="M84,179.8l-1.9,0L72.1,168h-1v11.9h-1.6v-23.8h6.9c2.2,0,4,0.5,5.4,1.5c1.5,1.1,2.2,2.5,2.2,4.4
		c0,1.9-0.7,3.3-2.2,4.4c-1.4,1.1-3.3,1.6-5.5,1.6h-2.4L84,179.8z M82.4,162c0-1.5-0.6-2.6-1.8-3.4c-1.1-0.7-2.5-1.1-4.3-1.1H71v9.1
		h5.3c1.7,0,3.2-0.4,4.3-1.2C81.8,164.5,82.4,163.4,82.4,162z"/>
	<path fill="#9A999E" d="M102.4,155.3l11.2,24.5l-1.6,0l-3.3-7.1H96.1l-3.2,7.1l-1.6,0L102.4,155.3z M102.4,158.8l-5.7,12.5h11.4
		L102.4,158.8z"/>
	<path fill="#9A999E" d="M135.2,156.1v1.4H129v22.4h-1.6v-22.4h-6.2v-1.4H135.2z"/>
	<path fill="#9A999E" d="M157.6,157.5h-11.9v8.6h11.9v1.5h-11.9v10.9h11.9v1.4h-13.4v-23.8h13.4V157.5z"/>
	<path fill="#9A999E" d="M191.4,161.5c-2.5-2.9-6-4.3-10.5-4.3c-3.7,0-6.7,1-9.2,3.1c-2.4,2.1-3.6,4.6-3.6,7.8
		c0,3.1,1.2,5.7,3.6,7.8c2.4,2,5.5,3,9.2,3c3.9,0,7.1-1.1,9.5-3.3c1.8-1.7,2.8-3.6,3.1-5.7h-9.2v-1.4h11c0,3.3-1.2,6-3.7,8.2
		c-2.7,2.4-6.3,3.6-10.7,3.6c-4.2,0-7.7-1.1-10.4-3.4c-2.7-2.3-4-5.2-4-8.8c0-3.5,1.4-6.5,4.1-8.8c2.7-2.3,6.1-3.4,10.3-3.4
		c5,0,9,1.6,11.8,4.9L191.4,161.5z"/>
	<path fill="#9A999E" d="M206,179.9h-1.6v-23.8h1.6V179.9z"/>
	<path fill="#9A999E" d="M225.9,155.3l11.2,24.5l-1.6,0l-3.3-7.1h-12.7l-3.2,7.1l-1.6,0L225.9,155.3z M225.9,158.8l-5.7,12.5h11.4
		L225.9,158.8z"/>
	<path fill="#9A999E" d="M258.6,159.7c-0.5-0.7-1.2-1.2-1.9-1.6c-0.9-0.5-2.1-0.7-3.6-0.7c-1.5,0-2.8,0.4-3.8,1.1
		c-1.1,0.8-1.6,1.8-1.6,3.1c0,1.2,0.6,2.1,1.7,3c0.6,0.4,1.9,1,3.9,1.8c2.4,0.9,4.2,1.9,5.3,2.8c1.5,1.3,2.3,2.8,2.3,4.7
		c0,3-1.5,5-4.5,6c-1,0.3-2.2,0.5-3.6,0.5c-4.3,0-7-1.7-8.3-5.2l1.6-0.5c0.9,2.8,3.1,4.3,6.7,4.3c2,0,3.6-0.4,4.8-1.3
		c1.2-0.9,1.7-2.1,1.7-3.8c0-1.6-0.7-2.9-2.1-3.9c-0.8-0.6-2.3-1.3-4.6-2.2c-2.2-0.8-3.7-1.6-4.6-2.2c-1.4-1-2-2.3-2-4
		c0-1.6,0.7-3,2.1-4c1.4-1,3.1-1.5,5-1.5c3.3,0,5.6,1,7,3.1L258.6,159.7z"/>
</g>
<g>
	<path fill="#9A999E" d="M409.3,157.5h-10.6v8.6h10.6v1.4h-10.6v12.4h-1.6v-23.8h12.2V157.5z"/>
	<path fill="#9A999E" d="M438.7,179.9h-1.6v-23.8h1.6V179.9z"/>
	<path fill="#9A999E" d="M480.3,159.7c-0.5-0.7-1.2-1.2-1.9-1.6c-0.9-0.5-2.1-0.7-3.6-0.7c-1.5,0-2.8,0.4-3.8,1.1
		c-1.1,0.8-1.6,1.8-1.6,3.1c0,1.2,0.6,2.1,1.7,3c0.6,0.4,1.9,1,3.9,1.8c2.4,0.9,4.2,1.9,5.3,2.8c1.5,1.3,2.3,2.8,2.3,4.7
		c0,3-1.5,5-4.5,6c-1,0.3-2.2,0.5-3.6,0.5c-4.3,0-7-1.7-8.3-5.2l1.6-0.5c0.9,2.8,3.1,4.3,6.7,4.3c2,0,3.6-0.4,4.8-1.3
		c1.2-0.9,1.7-2.1,1.7-3.8c0-1.6-0.7-2.9-2.1-3.9c-0.8-0.6-2.3-1.3-4.6-2.2c-2.2-0.8-3.7-1.6-4.6-2.2c-1.4-1-2-2.3-2-4
		c0-1.6,0.7-3,2.1-4c1.4-1,3.1-1.5,5-1.5c3.3,0,5.6,1,7,3.1L480.3,159.7z"/>
	<path fill="#9A999E" d="M509.2,168c0-3.6,1.3-6.5,4-8.8c2.7-2.3,6.1-3.4,10.4-3.4c2.4,0,4.6,0.3,6.5,0.9c1.1,0.4,2.2,0.9,3.3,1.6
		v1.7c-1.1-0.8-2.3-1.4-3.6-1.8c-1.9-0.7-4-1-6.2-1c-3.7,0-6.8,1-9.2,3.1c-2.4,2-3.6,4.6-3.6,7.8c0,3.2,1.2,5.7,3.6,7.8
		c2.4,2,5.5,3,9.2,3c2.4,0,4.4-0.3,6.1-1c0.9-0.4,2.2-1,3.8-2v1.5l-1.9,1.2c-1.5,0.9-3.4,1.4-6,1.6c-0.6,0-1.2,0.1-2,0.1
		c-4.2,0-7.7-1.1-10.4-3.4C510.6,174.5,509.2,171.6,509.2,168z"/>
	<path fill="#9A999E" d="M570.2,155.3l11.2,24.5l-1.6,0l-3.2-7.1h-12.7l-3.2,7.1l-1.6,0L570.2,155.3z M570.2,158.8l-5.7,12.5h11.4
		L570.2,158.8z"/>
	<path fill="#9A999E" d="M610.3,178.5h7.9v1.4h-9.5v-23.8h1.6V178.5z"/>
	<path fill="#9A999E" d="M658.9,157.5h-11.9v8.6h11.9v1.5h-11.9v10.9h11.9v1.4h-13.4v-23.8h13.4V157.5z"/>
	<path fill="#9A999E" d="M699.9,159.7c-0.5-0.7-1.2-1.2-1.9-1.6c-0.9-0.5-2.1-0.7-3.6-0.7c-1.5,0-2.8,0.4-3.8,1.1
		c-1.1,0.8-1.6,1.8-1.6,3.1c0,1.2,0.6,2.1,1.7,3c0.6,0.4,1.9,1,3.9,1.8c2.4,0.9,4.2,1.9,5.3,2.8c1.5,1.3,2.3,2.8,2.3,4.7
		c0,3-1.5,5-4.5,6c-1,0.3-2.2,0.5-3.6,0.5c-4.3,0-7-1.7-8.3-5.2l1.6-0.5c0.9,2.8,3.1,4.3,6.7,4.3c2,0,3.6-0.4,4.8-1.3
		c1.2-0.9,1.7-2.1,1.7-3.8c0-1.6-0.7-2.9-2.1-3.9c-0.8-0.6-2.3-1.3-4.6-2.2c-2.2-0.8-3.7-1.6-4.6-2.2c-1.4-1-2-2.3-2-4
		c0-1.6,0.7-3,2.1-4c1.4-1,3.1-1.5,5-1.5c3.3,0,5.6,1,7,3.1L699.9,159.7z"/>
</g>
<g>
	<rect x="269.8" y="0.3" fill="#94161D" width="119.9" height="179.8"/>
	<g>
		<path fill="#FFFFFF" d="M347.5,132.4c-15.6,20.1-34.2,27.4-58.9,27.4c-6.7,0-13-0.8-18.8-2.3c0-11.5,0-117.2,0-134.3
			c6.2-1.7,12.7-2.6,19.6-2.6c37.4,0,62.8,25.5,62.8,69.3V97h-82.4c0,0,0,27.1,0,38.1c5.6,2.8,11.9,4.4,18.8,4.4
			c19,0,31.7-6.8,42.2-20.1L347.5,132.4z M269.8,78.4h58.7C327.7,56,312.9,41,288.6,41c-7,0-13.3,1.2-18.8,3.5
			C269.8,56,269.8,78.4,269.8,78.4z"/>
	</g>
	<g opacity="0.75">
		<path fill="#FFFFFF" d="M293.3,163.3c16,7.1,33.6,11.6,50.7,11.6c20.9,0,43.3-8.6,43.3-33.6c0-38.4-87.7-61.2-87.7-107.4
			c0-13.2,7.4-26,22.5-33.5c25.4,0,67.6,0,67.6,0s0,4.9,0,9.9c-11.1-4-22.9-6.6-34.5-6.6c-20.9,0-42.5,6.7-42.5,30.6
			c0,27.1,53.6,49.9,77,80c0,11.7,0,45.8,0,54.5c-4.8,5.1-10.8,8.8-17.8,11.5c-9.2,0-50.6,0-69.7,0c-3.1-0.7-6.1-1.5-8.9-2.3V163.3z
			"/>
	</g>
</g>
</svg>